<svg version="1" xmlns="http://www.w3.org/2000/svg" width="266.667" height="266.667" viewBox="0 0 200.000000 200.000000"><path d="M83 11.5c-35 7-61.5 32.2-70.5 67.1-2.3 8.8-2.8 27.5-1 36.9 6.1 32.3 28.7 58.3 60 69 8.6 2.9 18.6 4.4 29.5 4.3 42.3-.3 78.9-31.4 86.5-73.4 1.4-7.8 1.4-26.6 0-32.9-7.3-34-32.2-60.6-65.2-69.6-9.7-2.6-29.7-3.3-39.3-1.4zm31.5 4c32.6 6 58.9 30.5 67.6 63 3.1 11.5 3.1 30.8 0 42-2.9 10.8-10.1 24.9-16.7 32.9-13 15.8-32.8 27.3-52.2 30.3-6.2 1-21.5 1-27.4 0-31.3-5-58.3-28.6-67.7-59.1-2.9-9.4-3.6-15.2-3.4-27.6.7-46.5 40.3-84 86.8-82.4 5.5.2 11.4.6 13 .9z"/><path d="M99.2 96.8c-9.4 23-17.3 42.3-17.4 43.1-.2.7.2 1.5.8 1.8.7.2 2.3-2.4 3.7-5.9 3.1-8.1 25.5-62.7 26.7-65.3 1.8-4 6-13.8 6-14 0-.2-.6-.5-1.4-.8-1-.4-6 10.8-18.4 41.1zM54 98v24h13c10.9 0 13-.2 13-1.5 0-1.2-1.9-1.5-10.9-1.5-7.8 0-11-.4-11.3-1.3-.2-.6-.4-10.8-.4-22.5.1-19.6 0-21.2-1.6-21.2-1.7 0-1.8 1.7-1.8 24zM122 98v24.1l10.5-.2c11.5-.2 15.4-1.4 18.8-6 2.5-3.5 2.5-10.4-.1-13.8-1-1.4-3.4-3.1-5.3-3.7l-3.4-1.2 2.7-1.2c3.3-1.6 6.8-8.2 6.2-11.8-.7-4-3.7-7.6-7.5-8.9-1.9-.7-7.6-1.2-12.6-1.2L122 74v24zm23.7-17.6c4.3 5 2.2 12.2-4.4 14.7-1.3.5-5.4.9-9.1.9h-6.7l.1-8.8c.1-4.8.2-9.1.3-9.6 0-.5 4-.6 8.8-.4 7.9.4 8.8.7 11 3.2zm-2.2 19.6c1.5.6 3.3 1.6 4 2.4 3.7 3.7 2.5 12-2.3 14.8-3.6 2-18.7 2.5-19.4.6-.4-1.1-.3-15.7.1-18.1.2-1.1 14.6-.9 17.6.3z"/></svg>